<svg width="119" height="27" viewBox="0 0 119 27" fill="none" xmlns="http://www.w3.org/2000/svg">
<rect width="70" height="27" fill="#00AAA1"/>
<path d="M21.9 24H17.607L8.481 8.88H8.373C8.391 9.276 8.409 9.699 8.427 10.149C8.463 10.581 8.49 11.031 8.508 11.499C8.526 11.949 8.544 12.408 8.562 12.876C8.58 13.344 8.598 13.812 8.616 14.28V24H5.511V4.722H9.777L18.876 19.734H18.957C18.939 19.374 18.921 18.987 18.903 18.573C18.885 18.141 18.867 17.7 18.849 17.25C18.849 16.8 18.84 16.341 18.822 15.873C18.804 15.405 18.786 14.955 18.768 14.523V4.722H21.9V24ZM40.2052 16.656C40.2052 17.88 40.0432 18.96 39.7192 19.896C39.3952 20.832 38.9272 21.633 38.3152 22.299C37.7212 22.947 36.9832 23.442 36.1012 23.784C35.2372 24.108 34.2742 24.27 33.2122 24.27C32.2042 24.27 31.2772 24.108 30.4312 23.784C29.5852 23.442 28.8472 22.947 28.2172 22.299C27.6052 21.633 27.1282 20.832 26.7862 19.896C26.4442 18.96 26.2732 17.88 26.2732 16.656C26.2732 15.036 26.5522 13.668 27.1102 12.552C27.6682 11.418 28.4692 10.563 29.5132 9.987C30.5752 9.393 31.8262 9.096 33.2662 9.096C34.6342 9.096 35.8312 9.393 36.8572 9.987C37.9012 10.563 38.7202 11.418 39.3142 12.552C39.9082 13.668 40.2052 15.036 40.2052 16.656ZM29.7562 16.656C29.7562 17.682 29.8732 18.564 30.1072 19.302C30.3592 20.022 30.7372 20.571 31.2412 20.949C31.7632 21.327 32.4292 21.516 33.2392 21.516C34.0672 21.516 34.7332 21.327 35.2372 20.949C35.7592 20.571 36.1372 20.022 36.3712 19.302C36.6052 18.564 36.7222 17.682 36.7222 16.656C36.7222 15.612 36.5962 14.739 36.3442 14.037C36.1102 13.317 35.7322 12.777 35.2102 12.417C34.7062 12.039 34.0492 11.85 33.2392 11.85C32.0152 11.85 31.1242 12.264 30.5662 13.092C30.0262 13.92 29.7562 15.108 29.7562 16.656ZM49.9321 21.543C50.3641 21.543 50.7781 21.507 51.1741 21.435C51.5701 21.345 51.9391 21.246 52.2811 21.138V23.676C51.9211 23.838 51.4531 23.973 50.8771 24.081C50.3011 24.207 49.6981 24.27 49.0681 24.27C48.2401 24.27 47.4841 24.135 46.8001 23.865C46.1341 23.577 45.5941 23.091 45.1801 22.407C44.7841 21.723 44.5861 20.769 44.5861 19.545V11.931H42.6151V10.446L44.7751 9.258L45.8551 6.153H47.9881V9.366H52.1461V11.931H47.9881V19.518C47.9881 20.202 48.1681 20.715 48.5281 21.057C48.8881 21.381 49.3561 21.543 49.9321 21.543ZM61.6569 9.096C62.9709 9.096 64.0959 9.366 65.0319 9.906C65.9859 10.428 66.7239 11.184 67.2459 12.174C67.7679 13.146 68.0289 14.334 68.0289 15.738V17.466H58.3629C58.3989 18.798 58.7679 19.833 59.4699 20.571C60.1719 21.291 61.1439 21.651 62.3859 21.651C63.3399 21.651 64.1859 21.561 64.9239 21.381C65.6799 21.183 66.4539 20.904 67.2459 20.544V23.271C66.5259 23.613 65.7789 23.865 65.0049 24.027C64.2309 24.189 63.3039 24.27 62.2239 24.27C60.8019 24.27 59.5329 24 58.4169 23.46C57.3189 22.902 56.4549 22.065 55.8249 20.949C55.2129 19.833 54.9069 18.447 54.9069 16.791C54.9069 15.117 55.1859 13.713 55.7439 12.579C56.3199 11.427 57.1119 10.563 58.1199 9.987C59.1279 9.393 60.3069 9.096 61.6569 9.096ZM61.6569 11.607C60.7569 11.607 60.0189 11.904 59.4429 12.498C58.8849 13.074 58.5519 13.938 58.4439 15.09H64.7349C64.7349 14.406 64.6179 13.803 64.3839 13.281C64.1679 12.759 63.8349 12.354 63.3849 12.066C62.9349 11.76 62.3589 11.607 61.6569 11.607Z" fill="white"/>
<path d="M77.236 12.862C78.8113 12.862 80.0013 13.0887 80.806 13.542C81.622 13.9953 82.03 14.783 82.03 15.905C82.03 16.6077 81.8543 17.197 81.503 17.673C81.1517 18.149 80.6473 18.4437 79.99 18.557V18.642C80.432 18.7213 80.8343 18.8687 81.197 19.084C81.5597 19.288 81.843 19.5883 82.047 19.985C82.2623 20.3703 82.37 20.8803 82.37 21.515C82.37 22.6143 81.979 23.47 81.197 24.082C80.4263 24.694 79.3667 25 78.018 25H73.581V12.862H77.236ZM77.525 17.809C78.3863 17.809 78.9757 17.673 79.293 17.401C79.6217 17.129 79.786 16.7267 79.786 16.194C79.786 15.65 79.5877 15.259 79.191 15.021C78.8057 14.783 78.1937 14.664 77.355 14.664H75.757V17.809H77.525ZM75.757 19.56V23.181H77.729C78.613 23.181 79.225 23.011 79.565 22.671C79.9163 22.331 80.092 21.8777 80.092 21.311C80.092 20.7897 79.9107 20.3703 79.548 20.053C79.1967 19.7243 78.5563 19.56 77.627 19.56H75.757ZM92.8941 20.376C92.8941 21.906 92.4974 23.0903 91.7041 23.929C90.9107 24.7563 89.8341 25.17 88.4741 25.17C87.6354 25.17 86.8874 24.983 86.2301 24.609C85.5727 24.235 85.0571 23.691 84.6831 22.977C84.3091 22.263 84.1221 21.396 84.1221 20.376C84.1221 18.846 84.5131 17.673 85.2951 16.857C86.0884 16.0297 87.1651 15.616 88.5251 15.616C89.3751 15.616 90.1287 15.803 90.7861 16.177C91.4434 16.5397 91.9591 17.078 92.3331 17.792C92.7071 18.4947 92.8941 19.356 92.8941 20.376ZM86.3151 20.376C86.3151 21.3507 86.4851 22.1043 86.8251 22.637C87.1764 23.1697 87.7374 23.436 88.5081 23.436C89.2787 23.436 89.8341 23.1697 90.1741 22.637C90.5254 22.1043 90.7011 21.3507 90.7011 20.376C90.7011 19.4013 90.5254 18.6533 90.1741 18.132C89.8341 17.6107 89.2731 17.35 88.4911 17.35C87.7317 17.35 87.1764 17.6107 86.8251 18.132C86.4851 18.6533 86.3151 19.4013 86.3151 20.376ZM103.336 20.376C103.336 21.906 102.94 23.0903 102.146 23.929C101.353 24.7563 100.276 25.17 98.9164 25.17C98.0778 25.17 97.3298 24.983 96.6724 24.609C96.0151 24.235 95.4994 23.691 95.1254 22.977C94.7514 22.263 94.5644 21.396 94.5644 20.376C94.5644 18.846 94.9554 17.673 95.7374 16.857C96.5308 16.0297 97.6074 15.616 98.9674 15.616C99.8174 15.616 100.571 15.803 101.228 16.177C101.886 16.5397 102.401 17.078 102.775 17.792C103.149 18.4947 103.336 19.356 103.336 20.376ZM96.7574 20.376C96.7574 21.3507 96.9274 22.1043 97.2674 22.637C97.6188 23.1697 98.1798 23.436 98.9504 23.436C99.7211 23.436 100.276 23.1697 100.616 22.637C100.968 22.1043 101.143 21.3507 101.143 20.376C101.143 19.4013 100.968 18.6533 100.616 18.132C100.276 17.6107 99.7154 17.35 98.9334 17.35C98.1741 17.35 97.6188 17.6107 97.2674 18.132C96.9274 18.6533 96.7574 19.4013 96.7574 20.376ZM107.676 18.217C107.676 18.5117 107.664 18.8233 107.642 19.152C107.619 19.4807 107.596 19.7923 107.574 20.087H107.625C107.761 19.883 107.931 19.6507 108.135 19.39C108.339 19.1293 108.531 18.897 108.713 18.693L111.433 15.786H113.864L110.175 19.764L114.102 25H111.603L108.747 21.056L107.676 21.94V25H105.551V12.08H107.676V18.217Z" fill="#222222"/>
<mask id="mask0_109_321" style="mask-type:alpha" maskUnits="userSpaceOnUse" x="115" y="21" width="4" height="4">
<circle cx="117" cy="23" r="2" fill="white"/>
</mask>
<g mask="url(#mask0_109_321)">
<rect x="115" y="21" width="2" height="4" fill="#00AAA1"/>
</g>
<mask id="mask1_109_321" style="mask-type:alpha" maskUnits="userSpaceOnUse" x="115" y="21" width="4" height="4">
<circle cx="117" cy="23" r="2" transform="rotate(-180 117 23)" fill="#222222"/>
</mask>
<g mask="url(#mask1_109_321)">
<rect x="119" y="25" width="2" height="4" transform="rotate(-180 119 25)" fill="#00AAA1"/>
</g>
</svg>
