<?xml version="1.0" encoding="utf-8"?>
<!-- Generator: Adobe Illustrator 25.4.1, SVG Export Plug-In . SVG Version: 6.00 Build 0)  -->
<svg version="1.1" xmlns="http://www.w3.org/2000/svg" xmlns:xlink="http://www.w3.org/1999/xlink" x="0px" y="0px"
	 viewBox="0 0 500 500" style="enable-background:new 0 0 500 500;" xml:space="preserve">
<style type="text/css">
	.st0{opacity:0.41;}
	.st1{fill:#E1E2FE;}
	.st2{opacity:0.31;}
	.st3{opacity:0.47;fill:#ECF1F7;}
	.st4{opacity:0.47;fill:#E1E2FE;}
	.st5{opacity:0.32;fill:#E1E2FE;}
	.st6{opacity:0.83;}
	.st7{opacity:0.81;fill:#E1E2FE;}
	.st8{opacity:0.58;fill:#3E479B;}
	.st9{opacity:0.58;fill:#EF929C;}
	.st10{opacity:0.66;}
	.st11{fill:#FFFFFF;}
	.st12{opacity:0.84;}
	.st13{opacity:0.81;}
	.st14{opacity:0.66;fill:#FFFFFF;}
	.st15{fill:#3E479B;}
	.st16{fill:#6D6CD4;}
	.st17{opacity:0.12;fill:#FFFFFF;}
	.st18{fill:#F28393;}
	.st19{fill:#C5D9FF;}
	.st20{fill:#599AF2;}
	.st21{opacity:0.35;}
	.st22{fill:#ECF1F7;}
	.st23{opacity:0.36;fill:#4C65BA;}
	.st24{opacity:0.47;fill:#FFFFFF;}
	.st25{opacity:0.39;fill:#F7A9B4;}
</style>
<g id="BACKGROUND">
	<g>
		<g>
			<g class="st0">
				<g>
					<g>
						<path class="st1" d="M28.81,302.94c-0.81-7.59-1-15.24-0.54-22.86c2.17-35.78,18.37-70.28,43.49-95.34
							c8.96-8.94,19.27-17.07,24.82-28.54c9.35-19.32,7.49-40.85,19.33-60.06c11.85-19.23,29.76-34.69,50.39-43.24
							c61.52-25.48,151.02,5.95,146.97,83.41c-0.01,0.28-0.03,0.68-0.03,1.19c-0.25,16.06,12.73,28.86,28.4,28.41
							c57.86-1.66,109.87,41.19,123.4,98.24c8.7,36.69-0.48,77.9-25.72,105.53c-18.84,20.62-44.89,32.78-71.13,41.58
							c-52.6,17.64-108.58,23.72-163.86,20.97c-51.75-2.57-106.81-14.8-142.13-53.48C43.38,358.13,31.82,331.01,28.81,302.94z"/>
					</g>
				</g>
			</g>
			<g class="st2">
				
					<ellipse transform="matrix(0.0211 -0.9998 0.9998 0.0211 252.1124 352.7772)" class="st1" cx="306.21" cy="47.64" rx="13.29" ry="13.02"/>
			</g>
			<g class="st2">
				<path class="st1" d="M85.62,48c0.19,3.78,3.35,6.69,7.05,6.49c3.71-0.2,6.56-3.42,6.37-7.21c-0.19-3.78-3.35-6.69-7.05-6.49
					C88.28,40.99,85.43,44.22,85.62,48z"/>
			</g>
			<g class="st2">
				<path class="st1" d="M472.09,202.99c0.13,2.5,2.21,4.43,4.67,4.3c2.45-0.13,4.34-2.27,4.21-4.77c-0.13-2.5-2.21-4.43-4.67-4.3
					C473.85,198.35,471.97,200.49,472.09,202.99z"/>
			</g>
			<g class="st2">
				
					<ellipse transform="matrix(0.0209 -0.9998 0.9998 0.0209 -9.4832 853.1705)" class="st1" cx="430.87" cy="431.43" rx="20.93" ry="20.5"/>
			</g>
		</g>
	</g>
	<g>
		<g>
			<path class="st3" d="M25.72,98.01c-6.42-11.3-2.64-25.77,8.43-32.33c11.07-6.56,32.93-7.28,39.35,4.02
				c6.42,11.3-10.58,22.18-17.17,33.38C47.13,118.7,32.14,109.31,25.72,98.01z"/>
			<path class="st4" d="M93.26,452.05c-7.95,5.86-19.04,4.03-24.77-4.09s-7.91-25.08,0.05-30.94s17.36,6.54,26.22,10.82
				C107.1,433.81,101.21,446.2,93.26,452.05z"/>
			<path class="st4" d="M408.43,24.33c8.62-9.06,22.79-9.27,31.65-0.48s15.22,29.36,6.6,38.42c-8.62,9.06-22.97-4.23-34.89-7.55
				C395.17,50.09,399.81,33.39,408.43,24.33z"/>
		</g>
		<g>
			<path class="st5" d="M45.02,148.18c-5.82,16.76-7.41,35.07-3.64,52.39c5.06,23.29,22.51,43.77,19.54,68.61
				c-1.78,14.91-1.47,28.57-1.83,43.22c-0.74,30.07,20.28,54.97,44.93,67.43c20.02,10.12,42.79,12.79,64.76,10.86
				c19.78-1.74,39.25-6.93,58.05-13.37c18.12-6.2,35.7-13.91,55.24-13.33c16.25,0.48,31.31,6.52,46.73,10.71
				c36.81,10.01,80.36,8.59,111.65-13.11c34.3-23.78,48.15-68.91,36.16-108.35c-6.43-21.15-15.01-39.49-11.91-62.02
				c1.53-11.09,3.81-22.37,1.7-33.36c-1.94-10.12-7.48-19.22-14.06-27.14c-17.74-21.37-42.98-35-69.23-43.01
				c-29.78-9.09-62.83-14.05-93.79-9.34c-60.14,9.15-73.23,0.25-136.1-8.68C111.1,63.7,71.56,97.19,52.37,131.73
				C49.46,136.97,46.99,142.48,45.02,148.18z"/>
			<g class="st6">
				<path class="st7" d="M74.13,196.57c8.66-11.43,22.05-19.19,28.61-32.33c7.85-15.72,6.2-34.28,13.22-50.35
					c10.37-23.74,29.14-43.9,52.65-54.97c11.33-5.34,23.77-8.58,35.9-7.65c18.7,1.43,34.83,12.57,47.44,25.86
					c18.77,19.79,32.05,47.89,54.58,63.74c12.43,8.75,27.04-0.53,40.22-3.48c14.9-3.33,30.38-2.55,44.61,1.5
					c26.21,7.46,48.78,26.24,60.07,50.99c12.05,26.43,10.34,62.97-12.28,85.7c-10.46,10.51-24.66,17.54-32.42,30.13
					c-9.75,15.8-10.89,37.16-13.61,54.73c-3,19.4-11.3,38.31-23.76,54c-0.14,0.18-0.28,0.36-0.43,0.53
					c-21.66,26.92-58.62,36-89.78,22.5c0,0-66.29-28.72-66.3-28.72c-67.27-29.14-118.34-76.1-142.85-144.16
					c-5.31-14.73-7.23-46.13-0.47-60.5C70.79,201.39,72.36,198.91,74.13,196.57z"/>
			</g>
		</g>
	</g>
	<circle class="st8" cx="384.07" cy="432.87" r="4.5"/>
	<circle class="st8" cx="270.19" cy="37.61" r="2.25"/>
	<circle class="st8" cx="131.32" cy="443.68" r="4.5"/>
	<circle class="st9" cx="402.4" cy="463.97" r="3.5"/>
	<circle class="st8" cx="58.06" cy="40.78" r="1.5"/>
	
		<ellipse transform="matrix(0.4534 -0.8913 0.8913 0.4534 181.8024 457.8894)" class="st9" cx="464.22" cy="80.72" rx="5.4" ry="5.4"/>
	<path class="st9" d="M75.15,26.8c-0.24,1.14-1.37,1.87-2.52,1.63c-1.14-0.24-1.87-1.37-1.63-2.52c0.24-1.14,1.37-1.87,2.52-1.63
		C74.66,24.53,75.39,25.66,75.15,26.8z"/>
	<path class="st9" d="M289.77,19.96c-0.24,1.14-1.37,1.87-2.52,1.63c-1.14-0.24-1.87-1.37-1.63-2.52c0.24-1.14,1.37-1.87,2.52-1.63
		C289.29,17.69,290.02,18.81,289.77,19.96z"/>
	<path class="st8" d="M438.64,86.5c-0.21,0.97-1.16,1.59-2.14,1.39c-0.97-0.21-1.59-1.16-1.39-2.14c0.21-0.97,1.16-1.59,2.14-1.39
		C438.23,84.57,438.85,85.53,438.64,86.5z"/>
	<path class="st8" d="M41.1,396.91c-0.21,0.97-1.16,1.59-2.14,1.39c-0.97-0.21-1.59-1.16-1.39-2.14c0.21-0.97,1.16-1.59,2.14-1.39
		C40.69,394.98,41.31,395.94,41.1,396.91z"/>
</g>
<g id="OBJECTS">
	<g>
		<g class="st10">
			<g>
				<g>
					<path class="st11" d="M371.12,208.38h-7.81c-3.28,0-5.94-2.67-5.94-5.94v-8.78c0-1.65-1.04-3.13-2.59-3.7
						c-0.92-0.34-1.84-0.72-2.73-1.13c-1.52-0.7-3.33-0.4-4.49,0.77l-6.21,6.21c-1.12,1.12-2.62,1.74-4.2,1.74
						c-1.59,0-3.08-0.62-4.2-1.74l-5.52-5.52c-2.32-2.32-2.32-6.09,0-8.4l6.21-6.21c1.16-1.16,1.47-2.97,0.77-4.49
						c-0.41-0.9-0.79-1.81-1.13-2.73c-0.57-1.55-2.06-2.59-3.7-2.59h-8.78c-3.28,0-5.94-2.67-5.94-5.94v-7.81
						c0-3.28,2.67-5.94,5.94-5.94h8.78c1.65,0,3.13-1.04,3.7-2.59c0.34-0.92,0.72-1.84,1.13-2.73c0.7-1.52,0.4-3.33-0.77-4.49
						l-6.21-6.21c-2.32-2.32-2.32-6.09,0-8.4l5.52-5.52c2.32-2.32,6.09-2.32,8.41,0l6.21,6.21c1.16,1.17,2.97,1.47,4.49,0.77
						c0.9-0.42,1.82-0.79,2.73-1.13c1.55-0.57,2.59-2.06,2.59-3.7v-8.78c0-3.28,2.67-5.94,5.94-5.94h7.81
						c3.28,0,5.94,2.67,5.94,5.94v8.78c0,1.65,1.04,3.13,2.59,3.7c0.91,0.34,1.83,0.72,2.73,1.13c1.52,0.71,3.33,0.4,4.49-0.77
						l6.21-6.21c2.32-2.32,6.09-2.32,8.41,0l5.52,5.52c2.32,2.32,2.32,6.09,0,8.4l-6.21,6.21c-1.16,1.17-1.47,2.97-0.77,4.49
						c0.41,0.89,0.79,1.81,1.13,2.73c0.57,1.55,2.06,2.59,3.7,2.59h8.78c3.28,0,5.94,2.67,5.94,5.94v7.81
						c0,3.28-2.67,5.94-5.94,5.94h-8.78c-1.65,0-3.13,1.04-3.7,2.59c-0.33,0.92-0.72,1.83-1.13,2.73c-0.71,1.52-0.4,3.33,0.77,4.49
						l6.21,6.21c2.32,2.32,2.32,6.09,0,8.4l-5.52,5.52c-1.12,1.12-2.62,1.74-4.2,1.74c-1.59,0-3.08-0.62-4.2-1.74l-6.21-6.21
						c-1.16-1.16-2.97-1.47-4.49-0.77c-0.89,0.41-1.81,0.79-2.73,1.13c-1.55,0.57-2.59,2.06-2.59,3.7v8.78
						C377.07,205.72,374.4,208.38,371.12,208.38z M350.36,186.45c0.86,0,1.72,0.18,2.54,0.56c0.84,0.39,1.71,0.75,2.58,1.07
						c2.33,0.86,3.9,3.1,3.9,5.58v8.78c0,2.17,1.77,3.94,3.94,3.94h7.81c2.17,0,3.94-1.77,3.94-3.94v-8.78
						c0-2.48,1.57-4.72,3.9-5.58c0.87-0.32,1.74-0.68,2.58-1.07c2.28-1.05,4.99-0.59,6.75,1.17l6.21,6.21
						c1.54,1.54,4.04,1.54,5.58,0l5.52-5.52c1.54-1.54,1.54-4.04,0-5.58l-6.21-6.21c-1.76-1.76-2.23-4.47-1.17-6.75
						c0.39-0.85,0.75-1.71,1.07-2.58c0.86-2.33,3.1-3.9,5.58-3.9h8.78c2.17,0,3.94-1.77,3.94-3.94v-7.81c0-2.17-1.77-3.94-3.94-3.94
						h-8.78c-2.48,0-4.72-1.57-5.58-3.9c-0.32-0.87-0.68-1.73-1.07-2.58c-1.06-2.28-0.59-4.99,1.17-6.74l6.21-6.21
						c1.54-1.54,1.54-4.04,0-5.58l-5.52-5.52c-1.54-1.54-4.04-1.54-5.58,0l-6.21,6.21c-1.75,1.76-4.47,2.22-6.75,1.17
						c-0.85-0.39-1.71-0.75-2.58-1.07c-2.33-0.86-3.9-3.1-3.9-5.58v-8.78c0-2.17-1.77-3.94-3.94-3.94h-7.81
						c-2.17,0-3.94,1.77-3.94,3.94v8.78c0,2.48-1.57,4.72-3.9,5.58c-0.86,0.32-1.73,0.68-2.58,1.07c-2.28,1.06-4.99,0.59-6.74-1.17
						l-6.21-6.21c-1.54-1.54-4.04-1.54-5.58,0l-5.52,5.52c-1.54,1.54-1.54,4.04,0,5.58l6.21,6.21c1.75,1.76,2.22,4.47,1.17,6.74
						c-0.39,0.84-0.75,1.71-1.07,2.58c-0.86,2.33-3.1,3.9-5.58,3.9h-8.78c-2.17,0-3.94,1.77-3.94,3.94v7.81
						c0,2.17,1.77,3.94,3.94,3.94h8.78c2.48,0,4.72,1.57,5.58,3.9c0.32,0.86,0.68,1.73,1.07,2.58c1.05,2.28,0.58,4.99-1.17,6.74
						l-6.21,6.21c-1.54,1.54-1.54,4.04,0,5.58l5.52,5.52c1.54,1.54,4.04,1.54,5.58,0l6.21-6.21
						C347.28,187.05,348.81,186.45,350.36,186.45z M367.22,183.47c-15.14,0-27.45-12.31-27.45-27.45
						c0-15.14,12.31-27.45,27.45-27.45c15.14,0,27.45,12.31,27.45,27.45C394.67,171.15,382.36,183.47,367.22,183.47z M367.22,130.57
						c-14.03,0-25.45,11.42-25.45,25.45c0,14.03,11.42,25.45,25.45,25.45c14.03,0,25.45-11.42,25.45-25.45
						C392.67,141.98,381.25,130.57,367.22,130.57z"/>
				</g>
				<g class="st12">
					<path class="st11" d="M356.59,351.07h-9.74c-2.3,0-4.35-1.44-5.15-3.6c-0.37-1-0.77-1.98-1.22-2.94
						c-0.97-2.1-0.57-4.59,1.07-6.23l6.89-6.89c2.14-2.14,2.14-5.61,0-7.75l-6.12-6.12c-2.14-2.14-5.61-2.14-7.75,0l-6.89,6.89
						c-1.64,1.64-4.13,2.05-6.23,1.07c-0.96-0.44-1.94-0.85-2.94-1.22c-2.16-0.79-3.6-2.85-3.6-5.15v-9.74
						c0-3.03-2.45-5.48-5.48-5.48h-8.66c-3.03,0-5.48,2.45-5.48,5.48v9.74c0,2.3-1.44,4.35-3.6,5.15c-1,0.37-1.98,0.77-2.94,1.22
						c-2.1,0.97-4.59,0.57-6.23-1.07l-6.89-6.89c-2.14-2.14-5.61-2.14-7.75,0l-6.12,6.12c-2.14,2.14-2.14,5.61,0,7.75l6.89,6.89
						c1.64,1.64,2.05,4.12,1.07,6.23c-0.44,0.96-0.85,1.94-1.22,2.94c-0.79,2.16-2.85,3.6-5.15,3.6h-9.74
						c-3.03,0-5.48,2.45-5.48,5.48v8.66c0,3.03,2.45,5.48,5.48,5.48h9.74c2.3,0,4.35,1.44,5.15,3.6c0.37,1,0.77,1.98,1.22,2.94
						c0.97,2.1,0.57,4.59-1.07,6.23l-6.89,6.89c-2.14,2.14-2.14,5.61,0,7.75l6.12,6.12c2.14,2.14,5.61,2.14,7.75,0l6.89-6.89
						c1.64-1.64,4.12-2.05,6.23-1.07c0.96,0.44,1.94,0.85,2.94,1.22c2.16,0.79,3.6,2.85,3.6,5.15v9.74c0,3.03,2.45,5.48,5.48,5.48
						h8.66c3.03,0,5.48-2.45,5.48-5.48v-9.74c0-2.3,1.44-4.35,3.6-5.15c1-0.37,1.98-0.77,2.94-1.22c2.1-0.97,4.59-0.57,6.23,1.07
						l6.89,6.89c2.14,2.14,5.61,2.14,7.75,0l6.12-6.12c2.14-2.14,2.14-5.61,0-7.75l-6.89-6.89c-1.64-1.64-2.05-4.12-1.07-6.23
						c0.44-0.96,0.85-1.94,1.22-2.94c0.79-2.16,2.85-3.6,5.15-3.6h9.74c3.03,0,5.48-2.45,5.48-5.48v-8.66
						C362.07,353.53,359.62,351.07,356.59,351.07z M305.11,390.22c-16.2,0-29.33-13.13-29.33-29.33c0-16.2,13.13-29.33,29.33-29.33
						s29.33,13.13,29.33,29.33C334.44,377.08,321.31,390.22,305.11,390.22z"/>
				</g>
				<g>
					<path class="st11" d="M204.29,409.4h-6.56c-2.84,0-5.15-2.31-5.15-5.15v-7.38c0-1.32-0.83-2.51-2.07-2.96
						c-0.77-0.28-1.55-0.6-2.3-0.95c-1.22-0.56-2.66-0.32-3.59,0.61l-5.22,5.22c-0.97,0.97-2.27,1.51-3.64,1.51
						c-1.38,0-2.67-0.54-3.64-1.51l-4.64-4.64c-0.97-0.97-1.51-2.27-1.51-3.64c0-1.38,0.54-2.67,1.51-3.64l5.22-5.22
						c0.93-0.93,1.18-2.37,0.61-3.59c-0.35-0.75-0.67-1.53-0.95-2.3c-0.45-1.24-1.64-2.07-2.96-2.07h-7.38
						c-2.84,0-5.15-2.31-5.15-5.15v-6.56c0-2.84,2.31-5.15,5.15-5.15h7.38c1.32,0,2.51-0.83,2.96-2.07c0.29-0.78,0.61-1.56,0.96-2.3
						c0.56-1.22,0.32-2.66-0.61-3.59l-5.22-5.22c-0.97-0.97-1.51-2.27-1.51-3.64c0-1.38,0.54-2.67,1.51-3.64l4.64-4.64
						c2.01-2.01,5.28-2.01,7.29,0l5.22,5.22c0.93,0.93,2.37,1.18,3.59,0.61c0.75-0.35,1.52-0.67,2.3-0.95
						c1.24-0.46,2.07-1.64,2.07-2.96v-7.38c0-2.84,2.31-5.15,5.15-5.15h6.56c2.84,0,5.15,2.31,5.15,5.15v7.38
						c0,1.32,0.83,2.5,2.07,2.96c0.78,0.29,1.56,0.61,2.3,0.95c1.22,0.57,2.66,0.32,3.59-0.61l5.22-5.22c2.01-2.01,5.28-2.01,7.29,0
						l4.64,4.64c0.97,0.97,1.51,2.27,1.51,3.64c0,1.38-0.54,2.67-1.51,3.64l-5.22,5.22c-0.93,0.93-1.18,2.37-0.61,3.59
						c0.35,0.75,0.67,1.52,0.96,2.3c0.45,1.24,1.64,2.07,2.96,2.07h7.38c2.84,0,5.15,2.31,5.15,5.15v6.56
						c0,2.84-2.31,5.15-5.15,5.15h-7.38c-1.32,0-2.51,0.83-2.96,2.07c-0.29,0.78-0.61,1.55-0.96,2.3c-0.56,1.22-0.32,2.66,0.61,3.59
						l5.22,5.22c0.97,0.97,1.51,2.27,1.51,3.64c0,1.38-0.54,2.67-1.51,3.64l-4.64,4.64c-0.97,0.97-2.27,1.51-3.64,1.51
						s-2.67-0.54-3.64-1.51l-5.22-5.22c-0.93-0.93-2.37-1.18-3.59-0.61c-0.76,0.35-1.53,0.67-2.31,0.96
						c-1.24,0.45-2.07,1.64-2.07,2.96v7.38C209.44,407.08,207.13,409.4,204.29,409.4z M186.85,390.65c0.74,0,1.49,0.16,2.2,0.48
						c0.71,0.33,1.43,0.63,2.15,0.89c2.02,0.74,3.38,2.69,3.38,4.84v7.38c0,1.74,1.41,3.15,3.15,3.15h6.56
						c1.74,0,3.15-1.41,3.15-3.15v-7.38c0-2.15,1.36-4.1,3.38-4.84c0.72-0.26,1.44-0.56,2.15-0.89c1.98-0.91,4.33-0.51,5.85,1.01
						l5.22,5.22c1.19,1.19,3.27,1.19,4.46,0l4.64-4.64c0.6-0.6,0.92-1.39,0.92-2.23s-0.33-1.63-0.92-2.23l-5.22-5.22
						c-1.52-1.52-1.93-3.87-1.01-5.85c0.33-0.7,0.63-1.43,0.89-2.15c0.74-2.02,2.69-3.38,4.84-3.38h7.38c1.74,0,3.15-1.41,3.15-3.15
						v-6.56c0-1.74-1.41-3.15-3.15-3.15h-7.38c-2.15,0-4.1-1.36-4.84-3.38c-0.27-0.73-0.57-1.46-0.89-2.15
						c-0.92-1.98-0.51-4.33,1.01-5.85l5.22-5.22c0.6-0.6,0.92-1.39,0.92-2.23s-0.33-1.63-0.92-2.23l-4.64-4.64
						c-1.23-1.23-3.23-1.23-4.46,0l-5.22,5.22c-1.52,1.52-3.87,1.93-5.85,1.01c-0.7-0.32-1.42-0.62-2.15-0.89
						c-2.02-0.74-3.38-2.69-3.38-4.84v-7.38c0-1.74-1.41-3.15-3.15-3.15h-6.56c-1.74,0-3.15,1.41-3.15,3.15v7.38
						c0,2.15-1.36,4.09-3.38,4.84c-0.73,0.27-1.46,0.57-2.15,0.89c-1.98,0.92-4.32,0.51-5.85-1.01l-5.22-5.22
						c-1.23-1.23-3.23-1.23-4.46,0l-4.64,4.64c-0.6,0.6-0.92,1.39-0.92,2.23s0.33,1.63,0.92,2.23l5.22,5.22
						c1.52,1.52,1.93,3.87,1.01,5.85c-0.32,0.7-0.62,1.42-0.89,2.15c-0.74,2.02-2.69,3.38-4.84,3.38h-7.38
						c-1.74,0-3.15,1.41-3.15,3.15v6.56c0,1.74,1.41,3.15,3.15,3.15h7.38c2.15,0,4.1,1.36,4.84,3.38c0.27,0.73,0.57,1.45,0.89,2.15
						c0.92,1.97,0.51,4.32-1.01,5.85l-5.22,5.22c-0.6,0.6-0.92,1.39-0.92,2.23s0.33,1.63,0.92,2.23l4.64,4.64
						c1.19,1.19,3.27,1.19,4.46,0l5.22-5.22C184.18,391.17,185.5,390.65,186.85,390.65z M201.01,388.46
						c-12.8,0-23.22-10.42-23.22-23.22c0-12.8,10.42-23.22,23.22-23.22c12.8,0,23.22,10.42,23.22,23.22
						C224.23,378.05,213.81,388.46,201.01,388.46z M201.01,344.03c-11.7,0-21.22,9.52-21.22,21.22c0,11.7,9.52,21.22,21.22,21.22
						s21.22-9.52,21.22-21.22C222.23,353.54,212.71,344.03,201.01,344.03z"/>
				</g>
			</g>
		</g>
		<g>
			<g class="st13">
				<path class="st11" d="M416.43,300.92H403.4c-0.55,0-1-0.45-1-1c0-0.55,0.45-1,1-1h13.04c0.55,0,1,0.45,1,1
					C417.43,300.47,416.98,300.92,416.43,300.92z"/>
				<path class="st11" d="M416.43,322.4H403.4c-0.55,0-1-0.45-1-1s0.45-1,1-1h13.04c0.55,0,1,0.45,1,1S416.98,322.4,416.43,322.4z"
					/>
				<g>
					<g>
						<g>
							<path class="st11" d="M425.65,344.1h-79.26c-1.5,0-2.71-1.22-2.71-2.71v-66.27c0-1.5,1.22-2.71,2.71-2.71h79.26
								c1.5,0,2.71,1.22,2.71,2.71v66.27C428.36,342.88,427.14,344.1,425.65,344.1z M346.38,274.41c-0.39,0-0.71,0.32-0.71,0.71
								v66.27c0,0.39,0.32,0.71,0.71,0.71h79.26c0.39,0,0.71-0.32,0.71-0.71v-66.27c0-0.39-0.32-0.71-0.71-0.71H346.38z"/>
							<path class="st14" d="M425.65,344.1h-79.26c-1.5,0-2.71-1.22-2.71-2.71v-66.27c0-1.5,1.22-2.71,2.71-2.71h79.26
								c1.5,0,2.71,1.22,2.71,2.71v66.27C428.36,342.88,427.14,344.1,425.65,344.1z M346.38,274.41c-0.39,0-0.71,0.32-0.71,0.71
								v66.27c0,0.39,0.32,0.71,0.71,0.71h79.26c0.39,0,0.71-0.32,0.71-0.71v-66.27c0-0.39-0.32-0.71-0.71-0.71H346.38z"/>
						</g>
					</g>
					<path class="st11" d="M416.43,290.5h-62.12c-0.55,0-1-0.45-1-1s0.45-1,1-1h62.12c0.55,0,1,0.45,1,1S416.98,290.5,416.43,290.5z
						"/>
					<path class="st11" d="M416.43,311.35h-62.12c-0.55,0-1-0.45-1-1c0-0.55,0.45-1,1-1h62.12c0.55,0,1,0.45,1,1
						C417.43,310.9,416.98,311.35,416.43,311.35z"/>
					<path class="st11" d="M387.8,300.92h-33.49c-0.55,0-1-0.45-1-1c0-0.55,0.45-1,1-1h33.49c0.55,0,1,0.45,1,1
						C388.8,300.47,388.35,300.92,387.8,300.92z"/>
					<path class="st11" d="M387.8,322.4h-33.49c-0.55,0-1-0.45-1-1s0.45-1,1-1h33.49c0.55,0,1,0.45,1,1S388.35,322.4,387.8,322.4z"
						/>
					<path class="st11" d="M376.9,332.36h-22.59c-0.55,0-1-0.45-1-1c0-0.55,0.45-1,1-1h22.59c0.55,0,1,0.45,1,1
						C377.9,331.91,377.45,332.36,376.9,332.36z"/>
				</g>
			</g>
			<g class="st13">
				<path class="st11" d="M162.8,191.56h-14.79c-0.55,0-1-0.45-1-1c0-0.55,0.45-1,1-1h14.79c0.55,0,1,0.45,1,1
					C163.8,191.11,163.35,191.56,162.8,191.56z"/>
				<path class="st11" d="M162.8,215.93h-14.79c-0.55,0-1-0.45-1-1c0-0.55,0.45-1,1-1h14.79c0.55,0,1,0.45,1,1
					C163.8,215.49,163.35,215.93,162.8,215.93z"/>
				<g>
					<g>
						<g>
							<path class="st11" d="M173.48,240.55H83.1c-1.5,0-2.71-1.22-2.71-2.71v-75.65c0-1.5,1.22-2.71,2.71-2.71h90.39
								c1.5,0,2.71,1.22,2.71,2.71v75.65C176.2,239.33,174.98,240.55,173.48,240.55z M83.1,161.48c-0.39,0-0.71,0.32-0.71,0.71
								v75.65c0,0.39,0.32,0.71,0.71,0.71h90.39c0.39,0,0.71-0.32,0.71-0.71v-75.65c0-0.39-0.32-0.71-0.71-0.71H83.1z"/>
							<path class="st14" d="M173.48,240.55H83.1c-1.5,0-2.71-1.22-2.71-2.71v-75.65c0-1.5,1.22-2.71,2.71-2.71h90.39
								c1.5,0,2.71,1.22,2.71,2.71v75.65C176.2,239.33,174.98,240.55,173.48,240.55z M83.1,161.48c-0.39,0-0.71,0.32-0.71,0.71
								v75.65c0,0.39,0.32,0.71,0.71,0.71h90.39c0.39,0,0.71-0.32,0.71-0.71v-75.65c0-0.39-0.32-0.71-0.71-0.71H83.1z"/>
						</g>
					</g>
					<path class="st11" d="M162.8,179.73H92.32c-0.55,0-1-0.45-1-1c0-0.55,0.45-1,1-1h70.48c0.55,0,1,0.45,1,1
						C163.8,179.28,163.35,179.73,162.8,179.73z"/>
					<path class="st11" d="M162.8,203.39H92.32c-0.55,0-1-0.45-1-1c0-0.55,0.45-1,1-1h70.48c0.55,0,1,0.45,1,1
						C163.8,202.94,163.35,203.39,162.8,203.39z"/>
					<path class="st11" d="M130.32,191.56h-38c-0.55,0-1-0.45-1-1c0-0.55,0.45-1,1-1h38c0.55,0,1,0.45,1,1
						C131.32,191.11,130.87,191.56,130.32,191.56z"/>
					<path class="st11" d="M130.32,215.93h-38c-0.55,0-1-0.45-1-1c0-0.55,0.45-1,1-1h38c0.55,0,1,0.45,1,1
						C131.32,215.49,130.87,215.93,130.32,215.93z"/>
					<path class="st11" d="M117.94,227.22H92.32c-0.55,0-1-0.45-1-1c0-0.55,0.45-1,1-1h25.63c0.55,0,1,0.45,1,1
						C118.94,226.78,118.5,227.22,117.94,227.22z"/>
				</g>
			</g>
		</g>
	</g>
	<g>
		<g>
			<g>
				<path class="st15" d="M423.19,158.02h-7.89h-31.68h-5.38c-2.01,0-3.8,1.47-4.46,3.66l-1.49,4.94c-0.66,2.19-2.45,3.66-4.46,3.66
					h-64.35c-2.61,0-4.72,2.44-4.72,5.45l0,0v72.85c0,3.01,2.11,5.45,4.72,5.45h0.32h111.5h7.89c2.78,0,5.04-2.44,5.04-5.45v-67.07
					v-11.23v-6.81C428.23,160.46,425.98,158.02,423.19,158.02z"/>
				<path class="st16" d="M377.27,171.04l1.59-4.94c0.7-2.19,2.62-3.66,4.76-3.66h39.57c2.78,0,5.04,2.44,5.04,5.45v6.81v11.23V253
					c0,3.01-2.26,5.45-5.04,5.45H303.81c-2.78,0-5.04-2.44-5.04-5.45v-72.85c0-3.01,2.26-5.45,5.04-5.45h68.7
					C374.66,174.7,376.57,173.23,377.27,171.04z"/>
				<path class="st17" d="M380.2,176.06l1.5-4.66c0.66-2.06,2.47-3.45,4.49-3.45h37.3c2.62,0,4.75,2.3,4.75,5.13v6.42v10.59v63.21
					c0,2.84-2.13,5.13-4.75,5.13H310.96c-2.62,0-4.75-2.3-4.75-5.13v-68.67c0-2.84,2.13-5.13,4.75-5.13h64.75
					C377.73,179.51,379.54,178.13,380.2,176.06z"/>
			</g>
			<path class="st11" d="M414.59,252.31h-29.53c-0.55,0-1-0.45-1-1c0-0.55,0.45-1,1-1h29.53c1.91,0,3.46-1.55,3.46-3.46v-23.43
				c0-0.55,0.45-1,1-1c0.55,0,1,0.45,1,1v23.43C420.05,249.86,417.6,252.31,414.59,252.31z"/>
		</g>
		<g>
			<g>
				<g>
					<path class="st18" d="M70.63,240.87h7.94h31.89h5.41c2.02,0,3.82,1.65,4.49,4.11l1.5,5.56c0.66,2.46,2.47,4.11,4.49,4.11h64.76
						c2.62,0,4.75,2.74,4.75,6.13v0v81.95c0,3.38-2.13,6.13-4.75,6.13h-0.32H78.56h-7.94c-2.8,0-5.07-2.74-5.07-6.13V267.3v-12.64
						V247C65.55,243.62,67.83,240.87,70.63,240.87z"/>
					<path class="st17" d="M116.84,255.53l-1.6-5.56c-0.71-2.46-2.63-4.11-4.79-4.11H70.63c-2.8,0-5.07,2.74-5.07,6.13v7.66v12.64
						v75.44c0,3.38,2.27,6.13,5.07,6.13h120.15c2.8,0,5.07-2.74,5.07-6.13v-81.95c0-3.38-2.27-6.13-5.07-6.13h-69.14
						C119.48,259.64,117.55,257.99,116.84,255.53z"/>
					<path class="st17" d="M113.9,261.17l-1.51-5.24c-0.67-2.32-2.48-3.88-4.52-3.88H70.34c-2.64,0-4.78,2.59-4.78,5.78v7.22v11.91
						v71.11c0,3.19,2.14,5.78,4.78,5.78h113.25c2.64,0,4.78-2.59,4.78-5.78v-77.24c0-3.19-2.14-5.78-4.78-5.78h-65.17
						C116.38,265.05,114.57,263.5,113.9,261.17z"/>
				</g>
			</g>
			<path class="st11" d="M74.8,276.05c-0.49,0-0.89-0.45-0.89-1v-13.88c0-1.88,1.37-3.41,3.05-3.41H95.6c0.49,0,0.89,0.45,0.89,1
				c0,0.55-0.4,1-0.89,1H76.95c-0.7,0-1.26,0.63-1.26,1.41v13.88C75.69,275.61,75.29,276.05,74.8,276.05z"/>
		</g>
	</g>
	<g>
		<g>
			<g>
				<g>
					<path class="st19" d="M316.98,197.88H188.47c-21.34,0-38.64-17.3-38.64-38.64v0c0-21.34,17.3-38.64,38.64-38.64h128.51
						c21.34,0,38.64,17.3,38.64,38.64v0C355.62,180.58,338.32,197.88,316.98,197.88z"/>
					<circle class="st20" cx="252.73" cy="126.5" r="54.34"/>
				</g>
			</g>
			<g>
				<path class="st20" d="M316.98,186.49H188.47c-21.34,0-38.64-17.3-38.64-38.64v0c0-21.34,17.3-38.64,38.64-38.64h128.51
					c21.34,0,38.64,17.3,38.64,38.64v0C355.62,169.19,338.32,186.49,316.98,186.49z"/>
				
					<ellipse transform="matrix(0.9184 -0.3957 0.3957 0.9184 -24.9252 109.3952)" class="st20" cx="252.73" cy="115.12" rx="54.34" ry="54.34"/>
			</g>
			<g class="st21">
				<g>
					<path class="st22" d="M316.98,186.49H188.47c-21.34,0-38.64-17.3-38.64-38.64v0c0-21.34,17.3-38.64,38.64-38.64h128.51
						c21.34,0,38.64,17.3,38.64,38.64v0C355.62,169.19,338.32,186.49,316.98,186.49z"/>
					
						<ellipse transform="matrix(0.9184 -0.3957 0.3957 0.9184 -24.9252 109.3952)" class="st22" cx="252.73" cy="115.12" rx="54.34" ry="54.34"/>
				</g>
			</g>
			<g>
				<g>
					<path class="st11" d="M240.02,123.21c-0.65,0-1.29-0.25-1.78-0.75c-0.97-0.98-0.95-2.57,0.03-3.54l14.58-14.34l14.35,14.35
						c0.98,0.98,0.98,2.56,0,3.54c-0.98,0.98-2.56,0.98-3.54,0l-10.85-10.85l-11.05,10.86
						C241.29,122.97,240.65,123.21,240.02,123.21z"/>
					<path class="st11" d="M252.73,143.09c-1.38,0-2.5-1.12-2.5-2.5v-32.48c0-1.38,1.12-2.5,2.5-2.5c1.38,0,2.5,1.12,2.5,2.5v32.48
						C255.23,141.97,254.11,143.09,252.73,143.09z"/>
				</g>
				<path class="st11" d="M276.36,158.52h-47.63c-3.41,0-6.19-2.78-6.19-6.19v-17.31c0-1.38,1.12-2.5,2.5-2.5
					c1.38,0,2.5,1.12,2.5,2.5v17.31c0,0.66,0.54,1.19,1.19,1.19h47.63c0.86,0,1.57-0.7,1.57-1.57v-16.93c0-1.38,1.12-2.5,2.5-2.5
					c1.38,0,2.5,1.12,2.5,2.5v16.93C282.92,155.57,279.98,158.52,276.36,158.52z"/>
			</g>
		</g>
		<g>
			<path class="st23" d="M328.32,323.93L192,368.97c-3.33,1.1-6.93-0.71-8.03-4.04l-45.04-136.32c-1.1-3.33,0.71-6.93,4.04-8.03
				l136.32-45.04c3.33-1.1,6.93,0.71,8.03,4.04l45.04,136.32C333.47,319.24,331.66,322.83,328.32,323.93z"/>
			<path class="st11" d="M318.3,318.89l-136.32,45.04c-3.33,1.1-6.93-0.71-8.03-4.04l-45.04-136.32c-1.1-3.33,0.71-6.93,4.04-8.03
				l136.32-45.04c3.33-1.1,6.93,0.71,8.03,4.04l45.04,136.32C323.45,314.19,321.64,317.79,318.3,318.89z"/>
			<g>
				
					<rect x="160.71" y="202.41" transform="matrix(0.9495 -0.3137 0.3137 0.9495 -72.4518 84.2469)" class="st19" width="129.67" height="129.67"/>
				<path class="st24" d="M183.27,350.18l-9.21-27.88l13.47-32.47c1.86-4.49,6.77-6.8,11.42-5.35l24.94,7.75
					c1.47,0.46,3.06-0.15,3.85-1.47l20.76-34.55c4.41-7.34,13.67-10.32,21.53-6.94l22.87,9.84l0.21,0.64l16.13,48.82l-1.42,0.47
					L183.27,350.18z M177.26,322.43l7.92,23.97l120.27-39.74l-14.98-45.33l-21.62-9.3c-6.5-2.79-14.13-0.33-17.77,5.73l-20.76,34.55
					c-1.51,2.51-4.51,3.66-7.31,2.79l-24.94-7.75c-3.16-0.98-6.5,0.58-7.76,3.64L177.26,322.43z"/>
				<path class="st24" d="M224.38,254.18c-6.7,0-12.95-4.25-15.16-10.95c-2.76-8.35,1.79-17.4,10.15-20.16
					c8.35-2.76,17.4,1.79,20.16,10.15c2.76,8.35-1.79,17.4-10.15,20.16C227.72,253.92,226.04,254.18,224.38,254.18z M224.36,225.26
					c-1.34,0-2.71,0.21-4.06,0.66c-6.78,2.24-10.48,9.58-8.24,16.37c2.24,6.78,9.59,10.48,16.37,8.24
					c6.78-2.24,10.48-9.58,8.24-16.37C234.87,228.71,229.8,225.26,224.36,225.26z"/>
			</g>
		</g>
		<g>
			<path class="st23" d="M369.36,348.48H262.94c-3.51,0-6.36-2.85-6.36-6.36V235.7c0-3.51,2.85-6.36,6.36-6.36h106.43
				c3.51,0,6.36,2.85,6.36,6.36v106.43C375.72,345.63,372.87,348.48,369.36,348.48z"/>
			<path class="st11" d="M363.32,342.43H256.89c-3.51,0-6.36-2.85-6.36-6.36V229.65c0-3.51,2.85-6.36,6.36-6.36h106.43
				c3.51,0,6.36,2.85,6.36,6.36v106.43C369.67,339.59,366.83,342.43,363.32,342.43z"/>
			<g>
				<rect x="260.61" y="233.44" class="st25" width="98.85" height="98.85"/>
				<path class="st24" d="M361.09,333.15H259.25v-22.87l17.6-20.38c2.55-2.95,6.86-3.46,10.03-1.2l16.2,11.57
					c0.82,0.59,1.93,0.54,2.7-0.12l23.29-20.04c5.08-4.38,12.7-4.32,17.71,0.13l14.32,12.69V333.15z M262.25,330.15h95.85v-35.87
					l-13.31-11.8c-3.9-3.46-9.82-3.5-13.77-0.1l-23.29,20.05c-1.82,1.56-4.45,1.68-6.4,0.29l-16.2-11.57
					c-1.9-1.36-4.49-1.05-6.01,0.72l-16.87,19.54V330.15z"/>
				<path class="st24" d="M316.13,274.09c-6.9,0-12.52-5.62-12.52-12.52c0-6.9,5.62-12.52,12.52-12.52c6.9,0,12.52,5.62,12.52,12.52
					C328.65,268.48,323.03,274.09,316.13,274.09z M316.13,252.05c-5.25,0-9.52,4.27-9.52,9.52s4.27,9.52,9.52,9.52
					s9.52-4.27,9.52-9.52S321.38,252.05,316.13,252.05z"/>
			</g>
		</g>
		<g>
			<path class="st23" d="M293.39,358.69l-60.16,22.54c-3.29,1.23-6.95-0.43-8.18-3.72l-22.54-60.16c-1.23-3.29,0.43-6.95,3.72-8.18
				l60.16-22.54c3.29-1.23,6.95,0.43,8.18,3.72l22.54,60.16C298.34,353.79,296.67,357.45,293.39,358.69z"/>
			<path class="st11" d="M288.36,356.4l-60.16,22.54c-3.29,1.23-6.95-0.43-8.18-3.72l-22.54-60.16c-1.23-3.29,0.43-6.95,3.72-8.18
				l60.16-22.54c3.29-1.23,6.95,0.43,8.18,3.72l22.54,60.16C293.31,351.5,291.65,355.17,288.36,356.4z"/>
			<g>
				
					<rect x="212.81" y="299.72" transform="matrix(0.9364 -0.3509 0.3509 0.9364 -100.8064 106.953)" class="st20" width="63.85" height="63.85"/>
				<path class="st24" d="M225.1,374.26l-5.44-14.52l6.1-16.5c0.97-2.62,3.73-4.05,6.43-3.33l12.42,3.33c0.39,0.11,0.81-0.07,1-0.43
					l9.55-17.41c2.21-4.03,7.11-5.82,11.4-4.18l11.76,4.52l9.39,25.05L225.1,374.26z M222.86,359.74l3.99,10.66l56.98-21.35
					l-7.86-20.98l-10.5-4.04c-2.9-1.11-6.2,0.1-7.69,2.82l-9.55,17.4c-0.86,1.57-2.67,2.35-4.41,1.88l-12.42-3.33
					c-1.19-0.32-2.41,0.31-2.84,1.47L222.86,359.74z"/>
				<path class="st24" d="M243.6,326.01c-3.49,0-6.79-2.14-8.08-5.59c-1.67-4.45,0.6-9.43,5.05-11.1c4.45-1.67,9.43,0.6,11.1,5.05
					l0,0c1.67,4.45-0.6,9.43-5.05,11.1C245.62,325.84,244.61,326.01,243.6,326.01z M243.59,311.77c-0.65,0-1.32,0.12-1.97,0.36
					c-2.9,1.09-4.38,4.33-3.29,7.23c1.09,2.9,4.33,4.38,7.23,3.29c2.9-1.09,4.38-4.33,3.29-7.23
					C248.01,313.17,245.86,311.77,243.59,311.77z"/>
			</g>
		</g>
	</g>
</g>
</svg>
